<?xml version="1.0" encoding="UTF-8"?>
<!DOCTYPE svg PUBLIC "-//W3C//DTD SVG 1.1//EN" "http://www.w3.org/Graphics/SVG/1.1/DTD/svg11.dtd">
<svg xmlns="http://www.w3.org/2000/svg" version="1.1" width="527px" height="184px" style="shape-rendering:geometricPrecision; text-rendering:geometricPrecision; image-rendering:optimizeQuality; fill-rule:evenodd; clip-rule:evenodd" xmlns:xlink="http://www.w3.org/1999/xlink">
<g><path style="opacity:0.955" fill="#0f4b87" d="M -0.5,9.5 C 7.16667,9.5 14.8333,9.5 22.5,9.5C 22.5,21.8333 22.5,34.1667 22.5,46.5C 14.8333,46.5 7.16667,46.5 -0.5,46.5C -0.5,34.1667 -0.5,21.8333 -0.5,9.5 Z"/></g>
<g><path style="opacity:0.981" fill="#c7d421" d="M 26.5,9.5 C 40.8333,9.5 55.1667,9.5 69.5,9.5C 69.5,21.8333 69.5,34.1667 69.5,46.5C 55.1667,46.5 40.8333,46.5 26.5,46.5C 26.5,34.1667 26.5,21.8333 26.5,9.5 Z"/></g>
<g><path style="opacity:0.996" fill="#1f211c" d="M 316.5,9.5 C 322.842,9.33379 329.175,9.50046 335.5,10C 338.583,10.786 340.749,12.6193 342,15.5C 344.566,23.7465 342.066,29.7465 334.5,33.5C 337.833,39.5 341.167,45.5 344.5,51.5C 341.894,52.6517 339.227,52.8184 336.5,52C 333.207,46.5816 330.04,41.0816 327,35.5C 325.989,34.6634 324.822,34.33 323.5,34.5C 323.5,40.5 323.5,46.5 323.5,52.5C 321.167,52.5 318.833,52.5 316.5,52.5C 316.5,38.1667 316.5,23.8333 316.5,9.5 Z M 323.5,15.5 C 326.518,15.3354 329.518,15.502 332.5,16C 336.5,19.6667 336.5,23.3333 332.5,27C 329.649,28.2886 326.649,28.7886 323.5,28.5C 323.5,24.1667 323.5,19.8333 323.5,15.5 Z"/></g>
<g><path style="opacity:0.992" fill="#1f211b" d="M 476.5,9.5 C 481.179,9.33418 485.845,9.50085 490.5,10C 493.001,12.3986 493.001,14.8986 490.5,17.5C 481.853,13.1226 476.02,15.456 473,24.5C 471.919,31.0544 472.586,37.3877 475,43.5C 477.984,46.1001 481.484,47.1001 485.5,46.5C 485.5,41.1667 485.5,35.8333 485.5,30.5C 488.167,30.5 490.833,30.5 493.5,30.5C 493.5,37.5 493.5,44.5 493.5,51.5C 475.266,57.3983 465.599,50.8983 464.5,32C 464.237,22.0161 468.237,14.5161 476.5,9.5 Z"/></g>
<g><path style="opacity:0.997" fill="#51ac44" d="M 79.5,10.5 C 85.31,9.51045 91.31,9.17711 97.5,9.5C 97.8323,21.5185 97.499,33.5185 96.5,45.5C 90.6273,33.8515 84.9606,22.1849 79.5,10.5 Z"/></g>
<g><path style="opacity:1" fill="#61256a" d="M 101.5,9.5 C 109.174,9.33365 116.841,9.50031 124.5,10C 129.713,20.0931 134.38,30.4264 138.5,41C 131.567,57.0315 124.234,72.8649 116.5,88.5C 111.399,78.6309 106.565,68.6309 102,58.5C 101.5,42.1701 101.333,25.8367 101.5,9.5 Z"/></g>
<g><path style="opacity:0.985" fill="#de5b2c" d="M 157.5,9.5 C 172.515,9.16732 187.515,9.50066 202.5,10.5C 190.607,36.6205 178.44,62.6205 166,88.5C 158.38,72.758 150.88,56.9247 143.5,41C 148.316,30.5374 152.983,20.0374 157.5,9.5 Z"/></g>
<g><path style="opacity:1" fill="#1f211c" d="M 222.5,9.5 C 232.167,9.5 241.833,9.5 251.5,9.5C 251.5,11.5 251.5,13.5 251.5,15.5C 247.833,15.5 244.167,15.5 240.5,15.5C 240.5,27.8333 240.5,40.1667 240.5,52.5C 238.167,52.5 235.833,52.5 233.5,52.5C 233.5,40.1667 233.5,27.8333 233.5,15.5C 229.833,15.5 226.167,15.5 222.5,15.5C 222.5,13.5 222.5,11.5 222.5,9.5 Z"/></g>
<g><path style="opacity:0.993" fill="#1f211c" d="M 252.5,9.5 C 255.448,9.22288 258.281,9.55621 261,10.5C 263,15.1667 265,19.8333 267,24.5C 269,19.8333 271,15.1667 273,10.5C 275.737,9.38951 278.571,9.22284 281.5,10C 278.311,16.8791 274.977,23.7125 271.5,30.5C 275.039,37.7448 278.706,44.9115 282.5,52C 279.446,52.8214 276.446,52.6548 273.5,51.5C 271.06,46.9534 268.893,42.2867 267,37.5C 264.576,42.0159 262.41,46.6826 260.5,51.5C 257.554,52.6548 254.554,52.8214 251.5,52C 255.294,44.9115 258.961,37.7448 262.5,30.5C 258.882,23.5996 255.549,16.5996 252.5,9.5 Z"/></g>
<g><path style="opacity:0.999" fill="#1f211c" d="M 284.5,9.5 C 286.833,9.5 289.167,9.5 291.5,9.5C 291.333,20.8382 291.5,32.1716 292,43.5C 294.573,47.809 297.906,48.4756 302,45.5C 302.973,43.6079 303.64,41.6079 304,39.5C 304.5,29.5056 304.666,19.5056 304.5,9.5C 306.833,9.5 309.167,9.5 311.5,9.5C 311.891,21.5534 311.391,33.5534 310,45.5C 304.577,53.6481 297.411,55.4814 288.5,51C 286.959,49.4207 285.792,47.5873 285,45.5C 284.5,33.5046 284.333,21.5046 284.5,9.5 Z"/></g>
<g><path style="opacity:0.993" fill="#1f211c" d="M 347.5,9.5 C 365.469,5.45127 374.802,12.4513 375.5,30.5C 374.714,48.6136 365.38,55.947 347.5,52.5C 347.5,38.1667 347.5,23.8333 347.5,9.5 Z M 354.5,15.5 C 364.589,15.2882 368.922,20.2882 367.5,30.5C 368.774,40.6923 364.441,46.0256 354.5,46.5C 354.5,36.1667 354.5,25.8333 354.5,15.5 Z"/></g>
<g><path style="opacity:1" fill="#1f211c" d="M 376.5,9.5 C 384.167,9.5 391.833,9.5 399.5,9.5C 399.5,11.5 399.5,13.5 399.5,15.5C 396.833,15.5 394.167,15.5 391.5,15.5C 391.5,25.8333 391.5,36.1667 391.5,46.5C 394.167,46.5 396.833,46.5 399.5,46.5C 399.5,48.5 399.5,50.5 399.5,52.5C 391.833,52.5 384.167,52.5 376.5,52.5C 376.5,50.5 376.5,48.5 376.5,46.5C 379.167,46.5 381.833,46.5 384.5,46.5C 384.5,36.1667 384.5,25.8333 384.5,15.5C 381.833,15.5 379.167,15.5 376.5,15.5C 376.5,13.5 376.5,11.5 376.5,9.5 Z"/></g>
<g><path style="opacity:0.992" fill="#1f211c" d="M 404.5,9.5 C 407.777,9.21614 410.943,9.54948 414,10.5C 417.667,19.8333 421.333,29.1667 425,38.5C 425.5,28.8391 425.666,19.1724 425.5,9.5C 427.5,9.5 429.5,9.5 431.5,9.5C 431.5,23.8333 431.5,38.1667 431.5,52.5C 428.428,52.8174 425.428,52.4841 422.5,51.5C 418.51,42.6968 415.01,33.6968 412,24.5C 411.5,33.8274 411.334,43.1607 411.5,52.5C 409.167,52.5 406.833,52.5 404.5,52.5C 404.5,38.1667 404.5,23.8333 404.5,9.5 Z"/></g>
<g><path style="opacity:0.992" fill="#1f211c" d="M 444.5,9.5 C 447.777,9.21614 450.943,9.54948 454,10.5C 457.819,24.4409 461.319,38.4409 464.5,52.5C 462.143,52.6633 459.81,52.4966 457.5,52C 456.594,49.5529 455.761,47.0529 455,44.5C 451.256,43.374 447.423,43.2073 443.5,44C 442.347,46.6157 441.347,49.2824 440.5,52C 438.098,52.8141 435.765,52.6474 433.5,51.5C 437.482,37.5728 441.148,23.5728 444.5,9.5 Z M 448.5,19.5 C 450.299,25.009 451.965,30.6757 453.5,36.5C 450.5,37.8333 447.5,37.8333 444.5,36.5C 446.308,30.937 447.641,25.2704 448.5,19.5 Z"/></g>
<g><path style="opacity:0.988" fill="#1f211c" d="M 526.5,47.5 C 526.5,49.1667 526.5,50.8333 526.5,52.5C 524.143,52.6633 521.81,52.4966 519.5,52C 518.287,49.3135 517.62,46.4802 517.5,43.5C 513.486,43.3345 509.486,43.5012 505.5,44C 504.287,46.6865 503.62,49.5198 503.5,52.5C 500.813,52.6641 498.146,52.4974 495.5,52C 499.712,37.9862 503.379,23.8195 506.5,9.5C 509.833,9.5 513.167,9.5 516.5,9.5C 519.231,22.431 522.565,35.0976 526.5,47.5 Z M 510.5,20.5 C 512.739,25.8943 514.406,31.561 515.5,37.5C 512.428,37.8174 509.428,37.4841 506.5,36.5C 508.463,31.3158 509.796,25.9825 510.5,20.5 Z"/></g>
<g><path style="opacity:0.984" fill="#af206f" d="M 74.5,9.5 C 80.9566,21.4167 86.6232,33.75 91.5,46.5C 85.8333,46.5 80.1667,46.5 74.5,46.5C 74.5,34.1667 74.5,21.8333 74.5,9.5 Z"/></g>
<g><path style="opacity:0.978" fill="#2c996e" d="M 140.5,46.5 C 149.057,61.7833 156.723,77.6166 163.5,94C 156.379,110.039 148.879,125.873 141,141.5C 133.355,125.712 125.855,109.878 118.5,94C 125.974,78.2203 133.307,62.387 140.5,46.5 Z"/></g>
<g><path style="opacity:0.98" fill="#2f7eb7" d="M 69.5,183.5 C 55.1667,183.5 40.8333,183.5 26.5,183.5C 26.5,139.167 26.5,94.8333 26.5,50.5C 40.8333,50.5 55.1667,50.5 69.5,50.5C 69.5,94.8333 69.5,139.167 69.5,183.5 Z"/></g>
<g><path style="opacity:0.96" fill="#1e201a" d="M 258.5,61.5 C 260.861,61.6741 263.194,62.0074 265.5,62.5C 265.688,64.1033 265.188,65.4366 264,66.5C 260.274,64.6462 257.608,65.6462 256,69.5C 255.149,73.0417 255.649,76.3751 257.5,79.5C 259.828,80.724 262.161,80.724 264.5,79.5C 265.868,83.0566 264.534,84.7232 260.5,84.5C 254.248,83.5756 251.248,79.9089 251.5,73.5C 251.335,67.8034 253.668,63.8034 258.5,61.5 Z"/></g>
<g><path style="opacity:0.996" fill="#1e201b" d="M 299.5,61.5 C 308.482,62.9612 310.482,67.4612 305.5,75C 303.564,75.813 301.564,76.313 299.5,76.5C 299.5,79.1667 299.5,81.8333 299.5,84.5C 298.167,84.5 296.833,84.5 295.5,84.5C 295.5,77.1667 295.5,69.8333 295.5,62.5C 297.099,62.7678 298.432,62.4345 299.5,61.5 Z M 299.5,65.5 C 304.255,65.1563 305.588,67.1563 303.5,71.5C 302.311,72.4287 300.978,72.762 299.5,72.5C 299.5,70.1667 299.5,67.8333 299.5,65.5 Z"/></g>
<g><path style="opacity:1" fill="#1f211b" d="M 267.5,62.5 C 271.167,62.5 274.833,62.5 278.5,62.5C 278.5,63.5 278.5,64.5 278.5,65.5C 277.167,65.5 275.833,65.5 274.5,65.5C 274.5,70.5 274.5,75.5 274.5,80.5C 275.833,80.5 277.167,80.5 278.5,80.5C 278.5,81.8333 278.5,83.1667 278.5,84.5C 274.833,84.5 271.167,84.5 267.5,84.5C 267.5,83.1667 267.5,81.8333 267.5,80.5C 268.833,80.5 270.167,80.5 271.5,80.5C 271.5,75.5 271.5,70.5 271.5,65.5C 270.167,65.5 268.833,65.5 267.5,65.5C 267.5,64.5 267.5,63.5 267.5,62.5 Z"/></g>
<g><path style="opacity:1" fill="#1f201b" d="M 281.5,62.5 C 285.5,62.5 289.5,62.5 293.5,62.5C 293.5,63.5 293.5,64.5 293.5,65.5C 290.833,65.5 288.167,65.5 285.5,65.5C 285.5,67.5 285.5,69.5 285.5,71.5C 288.167,71.5 290.833,71.5 293.5,71.5C 293.5,72.5 293.5,73.5 293.5,74.5C 290.833,74.5 288.167,74.5 285.5,74.5C 285.5,77.8333 285.5,81.1667 285.5,84.5C 284.167,84.5 282.833,84.5 281.5,84.5C 281.5,77.1667 281.5,69.8333 281.5,62.5 Z"/></g>
<g><path style="opacity:1" fill="#1f211b" d="M 347.5,62.5 C 348.833,62.5 350.167,62.5 351.5,62.5C 351.5,68.5 351.5,74.5 351.5,80.5C 353.833,80.5 356.167,80.5 358.5,80.5C 358.5,81.8333 358.5,83.1667 358.5,84.5C 354.833,84.5 351.167,84.5 347.5,84.5C 347.5,77.1667 347.5,69.8333 347.5,62.5 Z"/></g>
<g><path style="opacity:1" fill="#1f211a" d="M 359.5,62.5 C 360.833,62.5 362.167,62.5 363.5,62.5C 363.5,65.5 363.5,68.5 363.5,71.5C 365.5,71.5 367.5,71.5 369.5,71.5C 369.5,68.5 369.5,65.5 369.5,62.5C 370.833,62.5 372.167,62.5 373.5,62.5C 373.5,69.8333 373.5,77.1667 373.5,84.5C 372.167,84.5 370.833,84.5 369.5,84.5C 369.5,81.1667 369.5,77.8333 369.5,74.5C 367.5,74.5 365.5,74.5 363.5,74.5C 363.5,77.8333 363.5,81.1667 363.5,84.5C 362.167,84.5 360.833,84.5 359.5,84.5C 359.5,77.1667 359.5,69.8333 359.5,62.5 Z"/></g>
<g><path style="opacity:1" fill="#1f211b" d="M 375.5,62.5 C 379.167,62.5 382.833,62.5 386.5,62.5C 386.5,63.5 386.5,64.5 386.5,65.5C 385.167,65.5 383.833,65.5 382.5,65.5C 382.5,70.5 382.5,75.5 382.5,80.5C 383.833,80.5 385.167,80.5 386.5,80.5C 386.5,81.8333 386.5,83.1667 386.5,84.5C 382.833,84.5 379.167,84.5 375.5,84.5C 375.5,83.1667 375.5,81.8333 375.5,80.5C 376.833,80.5 378.167,80.5 379.5,80.5C 379.5,75.5 379.5,70.5 379.5,65.5C 378.167,65.5 376.833,65.5 375.5,65.5C 375.5,64.5 375.5,63.5 375.5,62.5 Z"/></g>
<g><path style="opacity:1" fill="#1f201a" d="M 389.5,62.5 C 393.5,62.5 397.5,62.5 401.5,62.5C 401.5,63.5 401.5,64.5 401.5,65.5C 400.167,65.5 398.833,65.5 397.5,65.5C 397.5,70.5 397.5,75.5 397.5,80.5C 398.833,80.5 400.167,80.5 401.5,80.5C 401.5,81.8333 401.5,83.1667 401.5,84.5C 397.5,84.5 393.5,84.5 389.5,84.5C 389.5,83.1667 389.5,81.8333 389.5,80.5C 390.833,80.5 392.167,80.5 393.5,80.5C 393.5,75.5 393.5,70.5 393.5,65.5C 392.167,65.5 390.833,65.5 389.5,65.5C 389.5,64.5 389.5,63.5 389.5,62.5 Z"/></g>
<g><path style="opacity:0.987" fill="#d81139" d="M 122.5,183.5 C 107.5,183.5 92.5,183.5 77.5,183.5C 89.9578,155.251 102.958,127.251 116.5,99.5C 124.234,115.135 131.567,130.968 138.5,147C 133.299,159.234 127.966,171.401 122.5,183.5 Z"/></g>
<g><path style="opacity:0.989" fill="#f3b829" d="M 205.5,183.5 C 190.5,183.5 175.5,183.5 160.5,183.5C 154.711,171.42 149.044,159.253 143.5,147C 150.88,131.075 158.38,115.242 166,99.5C 179.454,127.406 192.62,155.406 205.5,183.5 Z"/></g>
</svg>
